<?xml version="1.0" encoding="UTF-8" standalone="no"?>
<svg viewBox="0 0 23 23" version="1.1" xmlns="http://www.w3.org/2000/svg" xmlns:xlink="http://www.w3.org/1999/xlink" xmlns:sketch="http://www.bohemiancoding.com/sketch/ns">
<style>
#add-user.cancel path{
    fill:red;
    -webkit-transform:rotate(45deg);
}
</style>
    <!-- Generator: Sketch 3.0.4 (8054) - http://www.bohemiancoding.com/sketch -->
    <title>Rectangle 2</title>
    <desc>Created with Sketch.</desc>
    <defs></defs>
    <g id="Page-1" stroke="none" stroke-width="1" fill="none" fill-rule="evenodd" sketch:type="MSPage">
        <g id="phone-2" sketch:type="MSLayerGroup" transform="translate(-188.000000, -204.000000)" fill="#79B578">
            <g id="add-user" transform="translate(20.000000, 74.000000)" sketch:type="MSShapeGroup">
                <g transform="translate(30.000000, 88.000000)" id="add-user-icon">
                    <g transform="translate(127.000000, 31.000000)">
                        <path d="M20.84375,20.84375 L20.84375,13.6637842 C20.84375,12.458999 21.809136,11.5 23,11.5 C24.1991665,11.5 25.15625,12.4687592 25.15625,13.6637842 L25.15625,20.84375 L32.3362158,20.84375 C33.541001,20.84375 34.5,21.809136 34.5,23 C34.5,24.1991665 33.5312408,25.15625 32.3362158,25.15625 L25.15625,25.15625 L25.15625,32.3362158 C25.15625,33.541001 24.190864,34.5 23,34.5 C21.8008335,34.5 20.84375,33.5312408 20.84375,32.3362158 L20.84375,25.15625 L13.6637842,25.15625 C12.458999,25.15625 11.5,24.190864 11.5,23 C11.5,21.8008335 12.4687592,20.84375 13.6637842,20.84375 L20.84375,20.84375 Z" id="Rectangle-2" transform="translate(23.000000, 23.000000) rotate(-180.000000) translate(-23.000000, -23.000000) "></path>
                    </g>
                </g>
            </g>
        </g>
    </g>
</svg>